<svg xmlns="http://www.w3.org/2000/svg" width="130" height="100"><g fill="#9D7EB6" fill-opacity=".25"><circle cx="8" cy="8" r="2"/><circle cx="32" cy="8" r="2"/><circle cx="56" cy="8" r="2"/><circle cx="80" cy="8" r="2"/><circle cx="104" cy="8" r="2"/><circle cx="8" cy="32" r="2"/><circle cx="32" cy="32" r="2"/><circle cx="56" cy="32" r="2"/><circle cx="80" cy="32" r="2"/><circle cx="104" cy="32" r="2"/><circle cx="8" cy="56" r="2"/><circle cx="32" cy="56" r="2"/><circle cx="56" cy="56" r="2"/><circle cx="80" cy="56" r="2"/><circle cx="104" cy="56" r="2"/><circle cx="8" cy="80" r="2"/><circle cx="32" cy="80" r="2"/><circle cx="56" cy="80" r="2"/><circle cx="80" cy="80" r="2"/><circle cx="104" cy="80" r="2"/></g></svg>